<svg width="212" height="220" viewBox="0 0 212 220" fill="none" xmlns="http://www.w3.org/2000/svg">
<path d="M76.4501 182.223C75.0742 182.262 73.7113 181.947 72.4912 181.31L12.4047 146.617C11.9294 146.395 11.523 146.049 11.2288 145.615C10.9346 145.18 10.7634 144.674 10.7336 144.151C10.7336 143.004 11.5723 141.863 13.0337 141.018L128.212 74.5369C130.888 72.9953 134.958 72.8288 137.283 74.1731L197.369 108.866C197.843 109.089 198.249 109.436 198.543 109.87C198.837 110.304 199.009 110.809 199.04 111.333C199.04 112.479 198.202 113.62 196.74 114.465L81.556 180.946C79.9903 181.799 78.233 182.238 76.4501 182.223ZM133.305 73.8709C131.625 73.8663 129.972 74.2908 128.502 75.1042L13.342 141.561C12.1087 142.288 11.3503 143.238 11.3503 144.157C11.3842 144.571 11.5285 144.969 11.7682 145.308C12.0079 145.647 12.3341 145.916 12.7131 146.087L72.7996 180.774C74.9517 182.007 78.7441 181.859 81.2477 180.41L196.414 113.898C197.647 113.17 198.405 112.22 198.405 111.302C198.369 110.888 198.224 110.491 197.985 110.152C197.746 109.813 197.42 109.544 197.042 109.372L136.956 74.7096C135.83 74.1242 134.574 73.8355 133.305 73.8709Z" fill="#B44DAF"/>
<path d="M203.747 97.0736L195.73 98.4734L139.498 65.9943C137.154 64.6439 133.066 64.8104 130.359 66.3766L22.0564 128.905L8.00903 131.372V135.941C8.00903 136.823 8.49619 137.662 9.5815 138.291L72.2518 174.469C74.5951 175.82 78.6834 175.653 81.3905 174.093L201.508 104.714C202.982 103.863 203.734 102.771 203.74 101.742L203.747 97.0736Z" fill="#323337"/>
<path style="mix-blend-mode:lighten" opacity="0.5" d="M203.747 97.0736L195.73 98.4734L139.498 65.9943C137.154 64.6439 133.066 64.8104 130.359 66.3766L22.0564 128.905L8.00903 131.372V135.941C8.00903 136.823 8.49619 137.662 9.5815 138.291L72.2518 174.469C74.5951 175.82 78.6834 175.653 81.3905 174.093L201.508 104.714C202.982 103.863 203.734 102.771 203.74 101.742L203.747 97.0736Z" fill="url(#paint0_radial)"/>
<path d="M201.508 101.914L81.3967 171.262C78.6896 172.822 74.6136 172.989 72.258 171.638L9.58152 135.46C8.49622 134.843 7.98439 133.992 8.00906 133.11V134.313C8.00906 135.194 8.49622 136.033 9.58152 136.662L72.2518 172.841C74.5951 174.198 78.6835 174.025 81.3906 172.465L201.508 103.11C202.982 102.259 203.734 101.174 203.74 100.138V98.9414C203.734 99.9712 202.982 101.063 201.508 101.914Z" fill="#9B58FF"/>
<path d="M72.258 169.794L9.58152 133.615C7.23825 132.259 7.53424 129.915 10.2352 128.337L130.359 58.9882C133.066 57.4281 137.142 57.2616 139.498 58.6121L202.168 94.791C204.505 96.1477 204.215 98.4909 201.508 100.07L81.3967 169.418C78.6896 170.978 74.6012 171.151 72.258 169.794Z" fill="#312A91"/>
<g opacity="0.7">
<path d="M72.258 169.794L9.58152 133.615C7.23825 132.259 7.53424 129.915 10.2352 128.337L130.359 58.9882C133.066 57.4281 137.142 57.2616 139.498 58.6121L202.168 94.791C204.505 96.1477 204.215 98.4909 201.508 100.07L81.3967 169.418C78.6896 170.978 74.6012 171.151 72.258 169.794Z" fill="#7F52FF" style="mix-blend-mode:lighten"/>
</g>
<g opacity="0.4">
<path opacity="0.5" d="M203.747 96.1173L195.73 97.5233L139.498 65.0443C137.154 63.6876 133.066 63.8603 130.359 65.4204L22.0564 127.949L8.00903 130.415V131.273C8.00903 132.154 8.49619 132.993 9.5815 133.622L72.2518 169.801C74.5951 171.158 78.6834 170.985 81.3905 169.425L201.508 100.07C202.982 99.2191 203.734 98.1276 203.74 97.0978L203.747 96.1173Z" fill="url(#paint1_radial)"/>
<g opacity="0.7">
<path d="M72.2579 168.846L9.58149 132.661C7.23821 131.31 7.53421 128.961 10.2351 127.382L130.359 58.0397C133.066 56.4734 137.142 56.3069 139.498 57.6574L202.168 93.8425C204.505 95.193 204.215 97.5424 201.508 99.1149L81.3967 168.463C78.6896 170.024 74.6012 170.196 72.2579 168.846Z" fill="#42E8E0" style="mix-blend-mode:lighten"/>
</g>
<path opacity="0.4" d="M72.2579 168.846L9.58149 132.661C7.23821 131.31 7.53421 128.961 10.2351 127.382L130.359 58.0397C133.066 56.4734 137.142 56.3069 139.498 57.6574L202.168 93.8425C204.505 95.193 204.215 97.5424 201.508 99.1149L81.3967 168.463C78.6896 170.024 74.6012 170.196 72.2579 168.846Z" fill="#312A91"/>
</g>
<path d="M56.9465 163.37C56.9465 163.82 56.632 163.986 56.2435 163.777C56.0371 163.641 55.8658 163.459 55.7436 163.245C55.6214 163.03 55.5518 162.79 55.5405 162.544C55.5405 162.1 55.855 161.927 56.2435 162.137C56.4498 162.272 56.6212 162.454 56.7434 162.669C56.8656 162.883 56.9352 163.123 56.9465 163.37Z" fill="#180D5B"/>
<path d="M59.7214 164.973C59.7214 165.417 59.4069 165.589 59.0184 165.374C58.811 165.239 58.6389 165.057 58.5165 164.843C58.3942 164.628 58.3252 164.387 58.3154 164.14C58.3154 163.69 58.6299 163.524 59.0184 163.733C59.226 163.869 59.3981 164.052 59.5203 164.268C59.6426 164.483 59.7116 164.725 59.7214 164.973Z" fill="#180D5B"/>
<path d="M62.4963 166.571C62.4963 167.021 62.1818 167.187 61.7933 166.978C61.5866 166.843 61.415 166.66 61.2928 166.446C61.1705 166.232 61.1011 165.991 61.0903 165.744C61.0903 165.3 61.4048 165.128 61.7933 165.344C61.9999 165.477 62.1715 165.658 62.2938 165.872C62.4161 166.085 62.4855 166.325 62.4963 166.571Z" fill="#180D5B"/>
<path d="M18.7942 141.344C18.7942 141.788 18.4797 141.961 18.0913 141.745C17.8838 141.61 17.7117 141.428 17.5894 141.214C17.467 140.999 17.3981 140.758 17.3883 140.511C17.3883 140.061 17.7028 139.895 18.0913 140.104C18.2988 140.24 18.4709 140.423 18.5932 140.639C18.7155 140.854 18.7844 141.096 18.7942 141.344Z" fill="#180D5B"/>
<path d="M21.5692 142.947C21.5692 143.397 21.2547 143.563 20.8662 143.354C20.6595 143.219 20.4879 143.036 20.3657 142.822C20.2434 142.608 20.174 142.367 20.1632 142.12C20.1632 141.676 20.4777 141.504 20.8662 141.72C21.0728 141.853 21.2444 142.034 21.3667 142.248C21.489 142.461 21.5585 142.701 21.5692 142.947Z" fill="#180D5B"/>
<path d="M24.3379 144.544C24.3379 144.994 24.0234 145.16 23.635 144.951C23.4286 144.815 23.2573 144.633 23.1351 144.419C23.0129 144.204 22.9433 143.964 22.932 143.717C22.932 143.267 23.2465 143.101 23.635 143.31C23.8413 143.446 24.0126 143.628 24.1348 143.843C24.2571 144.057 24.3267 144.297 24.3379 144.544Z" fill="#180D5B"/>
<path opacity="0.5" d="M72.2579 168.846L9.58149 132.661C7.23821 131.31 7.53421 128.961 10.2351 127.382L130.359 58.0397C133.066 56.4734 137.142 56.3069 139.498 57.6574L202.168 93.8425C204.505 95.193 204.215 97.5424 201.508 99.1149L81.3967 168.463C78.6896 170.024 74.6012 170.196 72.2579 168.846Z" fill="url(#paint2_linear)"/>
<path opacity="0.9" d="M73.3438 168.802L10.6735 132.617C8.1329 131.075 7.67658 129.453 11.3272 127.345L131.445 57.9959C132.742 57.2885 134.176 56.868 135.65 56.7626C133.804 56.728 131.981 57.1743 130.359 58.0576L10.2419 127.382C7.54092 128.948 7.24493 131.31 9.5882 132.66L72.2585 168.845C73.7826 169.611 75.4982 169.911 77.1917 169.708C75.8535 169.732 74.5306 169.421 73.3438 168.802Z" fill="#1C3653"/>
<path opacity="0.2" d="M188.107 99.9336C188.263 99.9856 188.399 100.085 188.495 100.219C188.591 100.352 188.643 100.512 188.643 100.677C188.643 100.841 188.591 101.001 188.495 101.135C188.399 101.268 188.263 101.368 188.107 101.42C187.708 101.62 187.268 101.725 186.822 101.725C186.375 101.725 185.935 101.62 185.536 101.42C185.38 101.368 185.244 101.268 185.148 101.135C185.052 101.001 185 100.841 185 100.677C185 100.512 185.052 100.352 185.148 100.219C185.244 100.085 185.38 99.9856 185.536 99.9336C185.934 99.7301 186.375 99.624 186.822 99.624C187.269 99.624 187.709 99.7301 188.107 99.9336Z" fill="#5F27BD"/>
<path opacity="0.6" d="M192.115 97.6338C192.271 97.6858 192.407 97.7855 192.503 97.9189C192.6 98.0522 192.651 98.2125 192.651 98.3769C192.651 98.5413 192.6 98.7016 192.503 98.835C192.407 98.9683 192.271 99.068 192.115 99.12C191.717 99.3206 191.276 99.4251 190.83 99.4251C190.383 99.4251 189.943 99.3206 189.544 99.12C189.388 99.068 189.252 98.9683 189.156 98.835C189.06 98.7016 189.008 98.5413 189.008 98.3769C189.008 98.2125 189.06 98.0522 189.156 97.9189C189.252 97.7855 189.388 97.6858 189.544 97.6338C189.942 97.4303 190.383 97.3242 190.83 97.3242C191.277 97.3242 191.717 97.4303 192.115 97.6338Z" fill="#5F27BD"/>
<path d="M196.124 95.3096C196.278 95.3629 196.411 95.4628 196.505 95.5955C196.6 95.7281 196.65 95.8868 196.65 96.0496C196.65 96.2124 196.6 96.3711 196.505 96.5038C196.411 96.6364 196.278 96.7363 196.124 96.7896C195.726 96.9931 195.285 97.0992 194.838 97.0992C194.391 97.0992 193.95 96.9931 193.552 96.7896C193.395 96.7394 193.259 96.6407 193.162 96.5077C193.065 96.3747 193.012 96.2143 193.012 96.0496C193.012 95.8849 193.065 95.7246 193.162 95.5916C193.259 95.4586 193.395 95.3598 193.552 95.3096C193.95 95.1061 194.391 95 194.838 95C195.285 95 195.726 95.1061 196.124 95.3096Z" fill="#5F27BD"/>
<path d="M40.1735 153.166H39.7049V149.867C39.7064 149.72 39.7464 149.576 39.8211 149.449C39.8958 149.323 40.0024 149.218 40.1304 149.146L45.0636 146.321L45.2918 146.722L40.3585 149.546C40.3031 149.58 40.257 149.627 40.2246 149.683C40.1923 149.739 40.1747 149.802 40.1735 149.867V153.166Z" fill="#C781FF"/>
<path d="M43.152 155.403C43.152 155.958 42.8129 156.211 42.3997 155.977L37.4665 153.134C37.2368 152.971 37.0489 152.756 36.9181 152.506C36.7874 152.256 36.7175 151.979 36.7142 151.697C36.7142 151.142 37.0472 150.889 37.4665 151.13L42.3997 153.967C42.6284 154.131 42.8155 154.346 42.9462 154.596C43.0768 154.845 43.1473 155.122 43.152 155.403Z" fill="#180D5B"/>
<path d="M79.964 152.2C79.9277 152.21 79.8893 152.21 79.853 152.2L57.8016 139.466L45.3267 146.674C45.302 146.689 45.2748 146.698 45.2465 146.702C45.2182 146.705 45.1895 146.704 45.162 146.696C45.1345 146.689 45.1087 146.676 45.0862 146.658C45.0636 146.641 45.0448 146.619 45.0307 146.594C45.0013 146.545 44.9926 146.486 45.0064 146.431C45.0203 146.375 45.0557 146.328 45.1047 146.298L57.6967 139.028C57.7297 139.01 57.7669 139 57.8046 139C57.8424 139 57.8796 139.01 57.9126 139.028L79.964 151.756L100.714 139.756C100.764 139.727 100.823 139.719 100.879 139.734C100.934 139.749 100.982 139.786 101.01 139.836C101.039 139.886 101.047 139.945 101.032 140C101.017 140.056 100.98 140.103 100.93 140.132L80.0688 152.2C80.0345 152.209 79.9984 152.209 79.964 152.2Z" fill="#C781FF"/>
<path d="M56.2435 140.352C56.1948 140.353 56.1472 140.338 56.1084 140.308C56.0696 140.279 56.0419 140.237 56.0298 140.19C56.0176 140.143 56.0218 140.093 56.0416 140.049C56.0613 140.004 56.0956 139.968 56.1387 139.945L86.9713 122.185L67.7996 110.882C67.7672 110.864 67.7404 110.837 67.722 110.804C67.7035 110.771 67.6941 110.735 67.6947 110.697C67.6943 110.658 67.7044 110.62 67.7239 110.586C67.7434 110.553 67.7717 110.525 67.8057 110.506L89.8264 97.8647C89.8762 97.8361 89.9354 97.8284 89.991 97.8435C90.0465 97.8585 90.0937 97.895 90.1223 97.9449C90.151 97.9947 90.1586 98.054 90.1436 98.1095C90.1285 98.165 90.0921 98.2122 90.0422 98.2409L68.3422 110.697L87.4954 121.982C87.5285 122 87.5562 122.027 87.5757 122.06C87.5952 122.092 87.6058 122.129 87.6064 122.167C87.6064 122.205 87.5961 122.242 87.5765 122.275C87.557 122.307 87.5289 122.334 87.4954 122.352L56.3545 140.303C56.3221 140.328 56.284 140.345 56.2435 140.352Z" fill="#C781FF"/>
<path d="M76.2188 90C76.1799 89.9995 76.1416 90.0096 76.1079 90.0291C76.0743 90.0487 76.0466 90.0769 76.0277 90.111C76.0136 90.136 76.0047 90.1636 76.0014 90.1921C75.9981 90.2206 76.0006 90.2495 76.0086 90.2771C76.0167 90.3047 76.0301 90.3303 76.0482 90.3526C76.0663 90.3749 76.0887 90.3934 76.114 90.407L100.694 103.887C100.726 103.905 100.762 103.915 100.799 103.915C100.835 103.915 100.871 103.905 100.903 103.887L122.104 91.8438L133.629 98.0596C133.654 98.0733 133.681 98.0818 133.71 98.0846C133.738 98.0873 133.767 98.0843 133.794 98.0756C133.821 98.067 133.846 98.0529 133.868 98.0342C133.889 98.0156 133.907 97.9927 133.919 97.9671C133.933 97.9425 133.942 97.9154 133.945 97.8873C133.948 97.8593 133.946 97.8309 133.937 97.8038C133.929 97.7767 133.916 97.7516 133.898 97.7298C133.88 97.7081 133.858 97.6902 133.833 97.6773L122.203 91.4059C122.17 91.3892 122.134 91.3804 122.098 91.3804C122.061 91.3804 122.025 91.3892 121.993 91.4059L100.786 103.443L76.3113 90.0246C76.2832 90.0084 76.2513 89.9999 76.2188 90Z" fill="#C781FF"/>
<path d="M133.219 97C133.18 96.9995 133.142 97.0096 133.108 97.0291C133.074 97.0487 133.047 97.0769 133.028 97.111C133.014 97.136 133.005 97.1636 133.001 97.1921C132.998 97.2206 133.001 97.2495 133.009 97.2771C133.017 97.3047 133.03 97.3303 133.048 97.3526C133.066 97.3749 133.089 97.3934 133.114 97.407L157.694 110.887C157.726 110.905 157.762 110.915 157.799 110.915C157.835 110.915 157.871 110.905 157.903 110.887L179.104 98.8438L190.629 105.06C190.654 105.073 190.681 105.082 190.71 105.085C190.738 105.087 190.767 105.084 190.794 105.076C190.821 105.067 190.846 105.053 190.868 105.034C190.889 105.016 190.907 104.993 190.919 104.967C190.933 104.943 190.942 104.915 190.945 104.887C190.948 104.859 190.946 104.831 190.937 104.804C190.929 104.777 190.916 104.752 190.898 104.73C190.88 104.708 190.858 104.69 190.833 104.677L179.203 98.4059C179.17 98.3892 179.134 98.3804 179.098 98.3804C179.061 98.3804 179.025 98.3892 178.993 98.4059L157.786 110.443L133.311 97.0246C133.283 97.0084 133.251 96.9999 133.219 97Z" fill="#C781FF"/>
<path opacity="0.25" d="M132.343 53.2764C131.473 52.836 130.512 52.6064 129.536 52.6064C128.561 52.6064 127.6 52.836 126.729 53.2764L96.424 70.7803C94.8704 71.671 94.8704 73.1211 96.424 74.0221L116.248 85.467V95.4825H133.607L150.075 105.001L186.004 84.2862L132.343 53.2764Z" fill="#0B0244"/>
<path d="M148.48 58.2767L91.5146 25.3611C91.2356 25.1705 90.9142 25.051 90.5784 25.0131C90.2426 24.9752 89.9027 25.02 89.5882 25.1436H89.5364L85.7353 27.3186L88.656 28.5719V61.9846C88.7102 62.9576 88.9925 63.9043 89.4801 64.7481C89.9677 65.592 90.6469 66.3093 91.4629 66.8422L111.287 78.2352L119.966 93.2637L128.646 88.2611L146.843 98.8256L146.698 102.109L150.437 99.9545C150.72 99.7503 150.943 99.4751 151.085 99.1569C151.227 98.8386 151.282 98.4885 151.245 98.142V63.1446C151.197 62.1734 150.922 61.227 150.442 60.3816C149.962 59.5361 149.29 58.8151 148.48 58.2767V58.2767Z" fill="#312A91"/>
<path opacity="0.5" d="M148.48 58.2767L91.5146 25.3611C91.2356 25.1705 90.9142 25.051 90.5784 25.0131C90.2426 24.9752 89.9027 25.02 89.5882 25.1436L85.7353 27.3186L88.656 28.5719V61.9846C88.7102 62.9576 88.9925 63.9043 89.4801 64.7481C89.9677 65.592 90.6469 66.3093 91.4629 66.8422L111.287 78.2352L119.966 93.2637L128.646 88.2611L146.843 98.8256L146.698 102.109L150.437 99.9545C150.72 99.7503 150.943 99.4751 151.085 99.1569C151.227 98.8386 151.282 98.4885 151.245 98.142V63.1446C151.197 62.1734 150.922 61.227 150.442 60.3816C149.962 59.5361 149.29 58.8151 148.48 58.2767V58.2767Z" fill="#5CFFF3"/>
<path opacity="0.8" d="M148.48 58.2767L91.5146 25.3611C91.2356 25.1705 90.9142 25.051 90.5784 25.0131C90.2426 24.9752 89.9027 25.02 89.5882 25.1436L85.7353 27.3186L88.656 28.5719V61.9846C88.7102 62.9576 88.9925 63.9043 89.4801 64.7481C89.9677 65.592 90.6469 66.3093 91.4629 66.8422L111.287 78.2352L119.966 93.2637L128.646 88.2611L146.843 98.8256L146.698 102.109L150.437 99.9545C150.72 99.7503 150.943 99.4751 151.085 99.1569C151.227 98.8386 151.282 98.4885 151.245 98.142V63.1446C151.197 62.1734 150.922 61.227 150.442 60.3816C149.962 59.5361 149.29 58.8151 148.48 58.2767V58.2767Z" fill="url(#paint3_radial)"/>
<path d="M144.772 60.4417L87.8068 27.5262C86.2636 26.6354 85 27.3605 85 29.1523V64.1496C85.0542 65.1227 85.3365 66.0694 85.8241 66.9132C86.3117 67.757 86.9909 68.4744 87.8068 69.0072L107.641 80.4003L116.31 95.4287L124.99 90.4262L144.772 101.923C146.315 102.814 147.579 102.088 147.579 100.307V65.3097C147.526 64.3348 147.245 63.3861 146.757 62.5403C146.269 61.6946 145.589 60.9756 144.772 60.4417Z" fill="#312A91"/>
<path opacity="0.8" d="M144.772 60.4417L87.8068 27.5262C86.2636 26.6354 85 27.3605 85 29.1523V64.1496C85.0542 65.1227 85.3365 66.0694 85.8241 66.9132C86.3117 67.757 86.9909 68.4744 87.8068 69.0072L107.641 80.4003L116.31 95.4287L124.99 90.4262L144.772 101.923C146.315 102.814 147.579 102.088 147.579 100.307V65.3097C147.526 64.3348 147.245 63.3861 146.757 62.5403C146.269 61.6946 145.589 60.9756 144.772 60.4417Z" fill="url(#paint4_radial)"/>
<path opacity="0.5" d="M144.772 60.4417L87.8068 27.5262C86.2636 26.6354 85 27.3605 85 29.1523V64.1496C85.0542 65.1227 85.3365 66.0694 85.8241 66.9132C86.3117 67.757 86.9909 68.4744 87.8068 69.0072L107.641 80.4003L116.31 95.4287L124.99 90.4262L144.772 101.923C146.315 102.814 147.579 102.088 147.579 100.307V65.3097C147.526 64.3348 147.245 63.3861 146.757 62.5403C146.269 61.6946 145.589 60.9756 144.772 60.4417Z" fill="#5CFFF3"/>
<path opacity="0.8" d="M144.772 60.4417L87.8068 27.5262C86.2636 26.6354 85 27.3605 85 29.1523V64.1496C85.0542 65.1227 85.3365 66.0694 85.8241 66.9132C86.3117 67.757 86.9909 68.4744 87.8068 69.0072L107.641 80.4003L116.31 95.4287L124.99 90.4262L144.772 101.923C146.315 102.814 147.579 102.088 147.579 100.307V65.3097C147.526 64.3348 147.245 63.3861 146.757 62.5403C146.269 61.6946 145.589 60.9756 144.772 60.4417Z" fill="#7F52FF"/>
<path opacity="0.9" d="M145.808 59.8098L88.8426 26.8942C88.5675 26.6993 88.2475 26.5772 87.9125 26.5391C87.5775 26.5011 87.2383 26.5484 86.9265 26.6767L85.7872 27.3292C86.1034 27.1909 86.4501 27.1373 86.7934 27.1736C87.1366 27.2099 87.4644 27.3349 87.7447 27.5364L144.71 60.4519C145.527 60.9858 146.207 61.7048 146.695 62.5505C147.183 63.3963 147.464 64.345 147.517 65.3199V100.317C147.548 100.657 147.493 100.998 147.355 101.31C147.217 101.622 147.002 101.893 146.73 102.099L147.765 101.498C148.05 101.298 148.277 101.026 148.42 100.709C148.564 100.392 148.621 100.042 148.584 99.6958V64.6777C148.534 63.7056 148.258 62.7586 147.776 61.9131C147.293 61.0676 146.619 60.3471 145.808 59.8098V59.8098Z" fill="#7F52FF"/>
<g clip-path="url(#clip0)">
<path d="M106.009 44.9924C105.867 44.9108 105.732 44.8974 105.632 44.9551C105.532 45.0128 105.476 45.137 105.475 45.3002L105.475 56.9977L105.475 69.9266C105.475 69.9278 105.475 69.929 105.475 69.9302C105.476 69.9421 105.477 69.9541 105.478 69.9662C105.478 69.9766 105.479 69.987 105.48 69.9975C105.48 70.0001 105.48 70.0027 105.481 70.0053C105.482 70.0249 105.485 70.0447 105.488 70.0648C105.491 70.0837 105.495 70.1028 105.499 70.122C105.502 70.1338 105.505 70.1456 105.509 70.1574C105.513 70.1718 105.517 70.1863 105.521 70.2007C105.528 70.2224 105.536 70.244 105.544 70.2657C105.549 70.2781 105.554 70.2905 105.559 70.3029C105.562 70.3124 105.566 70.3218 105.57 70.3312C105.577 70.3457 105.584 70.3601 105.591 70.3745C105.595 70.3829 105.599 70.3914 105.604 70.3997C105.611 70.4133 105.618 70.4267 105.625 70.44C105.63 70.4483 105.634 70.4565 105.639 70.4647C105.65 70.4834 105.662 70.5019 105.674 70.52C105.675 70.5218 105.676 70.5236 105.678 70.5254C105.69 70.5434 105.702 70.5611 105.715 70.5783C105.717 70.5817 105.72 70.5851 105.722 70.5885C105.724 70.5907 105.726 70.5929 105.728 70.5951C105.74 70.6116 105.754 70.6277 105.767 70.6432C105.783 70.6618 105.799 70.6797 105.816 70.6967C105.827 70.7077 105.837 70.7183 105.848 70.7286C105.856 70.7356 105.864 70.7424 105.871 70.749C105.872 70.7501 105.873 70.7511 105.874 70.7521C105.889 70.7647 105.903 70.7767 105.918 70.7881C105.929 70.7963 105.94 70.8041 105.95 70.8116C105.96 70.8187 105.97 70.8255 105.98 70.832C105.983 70.8341 105.986 70.8361 105.99 70.838C105.996 70.8422 106.002 70.8462 106.009 70.8501C106.014 70.8531 106.019 70.8562 106.024 70.8591L127.336 83.1632C127.441 83.224 127.544 83.2474 127.632 83.2304C127.719 83.2133 127.788 83.1566 127.828 83.0674C127.868 82.9782 127.879 82.8606 127.858 82.7293C127.838 82.598 127.787 82.4591 127.713 82.3299L117.426 64.5131L127.713 58.5742C127.787 58.5311 127.838 58.4507 127.858 58.3431C127.879 58.2356 127.868 58.1057 127.828 57.97C127.788 57.8342 127.719 57.6986 127.632 57.5804C127.544 57.4621 127.441 57.3665 127.336 57.3056L116.139 50.8412L106.009 44.9924ZM106.542 46.5315L114.852 51.3294L106.542 56.1272L106.542 46.5315ZM116.36 52.1999L126.049 57.7938L116.295 63.4249L106.542 69.056L106.542 57.8683L116.36 52.1999ZM116.672 64.9484L126.049 81.1888L107.296 70.3619L116.672 64.9484Z" fill="white" stroke="white"/>
</g>
<path opacity="0.25" d="M86.483 104.352C85.6105 103.91 84.6464 103.68 83.6685 103.68C82.6906 103.68 81.7264 103.91 80.854 104.352L50.4657 121.903C48.9079 122.796 48.9079 124.25 50.4657 125.154L70.3437 136.578V146.621H87.75L103.983 155.968L140 135.197L86.483 104.352Z" fill="#0B0244"/>
<path d="M102.674 109.368L45.5533 76.3621C45.2736 76.1709 44.9513 76.0511 44.6146 76.0131C44.2779 75.9751 43.937 76.02 43.6216 76.144V76.144H43.5697L39.8309 78.2938L42.7596 79.5505V113.054C42.814 114.03 43.097 114.979 43.5859 115.826C44.0748 116.672 44.7559 117.391 45.5741 117.925L65.4522 129.401L74.1553 144.471L82.8585 139.455L101.127 149.996L100.981 153.288L104.731 151.128C105.014 150.923 105.238 150.647 105.38 150.328C105.522 150.009 105.578 149.658 105.541 149.311V114.238C105.481 113.258 105.19 112.306 104.691 111.459C104.193 110.613 103.502 109.896 102.674 109.368V109.368Z" fill="#312A91"/>
<path opacity="0.5" d="M102.674 109.368L45.5533 76.3621C45.2735 76.1709 44.9512 76.0511 44.6145 76.0131C44.2778 75.9751 43.9369 76.02 43.6216 76.144L39.8101 78.325L42.7388 79.5816V113.054C42.7931 114.03 43.0762 114.979 43.5651 115.826C44.054 116.672 44.7351 117.391 45.5533 117.925L65.4314 129.401L74.1345 144.471L82.8376 139.455L101.106 149.996L100.961 153.288L104.71 151.128C104.993 150.923 105.217 150.647 105.359 150.328C105.501 150.009 105.557 149.658 105.52 149.311V114.238C105.462 113.26 105.174 112.309 104.68 111.463C104.185 110.616 103.498 109.898 102.674 109.368V109.368Z" fill="#5CFFF3"/>
<path opacity="0.8" d="M102.674 109.368L45.5533 76.3621C45.2735 76.1709 44.9512 76.0511 44.6145 76.0131C44.2778 75.9751 43.9369 76.02 43.6216 76.144L39.8101 78.325L42.7388 79.5816V113.054C42.7931 114.03 43.0762 114.979 43.5651 115.826C44.054 116.672 44.7351 117.391 45.5533 117.925L65.4314 129.401L74.1345 144.471L82.8376 139.455L101.106 149.996L100.961 153.288L104.71 151.128C104.993 150.923 105.217 150.647 105.359 150.328C105.501 150.009 105.557 149.658 105.52 149.311V114.238C105.462 113.26 105.174 112.309 104.68 111.463C104.185 110.616 103.498 109.898 102.674 109.368V109.368Z" fill="url(#paint5_radial)"/>
<path d="M98.9353 111.539L41.8145 78.5331C40.2566 77.6399 39 78.3669 39 80.1636V115.257C39.0543 116.232 39.3374 117.182 39.8263 118.028C40.3152 118.874 40.9963 119.593 41.8145 120.127L61.7029 131.604L70.3957 146.673L79.0988 141.657L98.9873 153.133C100.535 154.026 101.802 153.299 101.802 151.502V116.42C101.743 115.438 101.453 114.483 100.955 113.635C100.457 112.786 99.7645 112.068 98.9353 111.539V111.539Z" fill="#312A91"/>
<path opacity="0.8" d="M98.9353 111.539L41.8145 78.5331C40.2566 77.6399 39 78.3669 39 80.1636V115.257C39.0543 116.232 39.3374 117.182 39.8263 118.028C40.3152 118.874 40.9963 119.593 41.8145 120.127L61.7029 131.604L70.3957 146.673L79.0988 141.657L98.9873 153.133C100.535 154.026 101.802 153.299 101.802 151.502V116.42C101.743 115.438 101.453 114.483 100.955 113.635C100.457 112.786 99.7645 112.068 98.9353 111.539V111.539Z" fill="url(#paint6_radial)"/>
<path opacity="0.5" d="M98.9353 111.539L41.8145 78.5331C40.2566 77.6399 39 78.3669 39 80.1636V115.257C39.0543 116.232 39.3374 117.182 39.8263 118.028C40.3152 118.874 40.9963 119.593 41.8145 120.127L61.7029 131.604L70.3957 146.673L79.0988 141.657L98.9873 153.133C100.535 154.026 101.802 153.299 101.802 151.502V116.42C101.743 115.438 101.453 114.483 100.955 113.635C100.457 112.786 99.7645 112.068 98.9353 111.539V111.539Z" fill="#5CFFF3"/>
<path opacity="0.8" d="M98.9353 111.539L41.8145 78.5331C40.2566 77.6399 39 78.3669 39 80.1636V115.257C39.0543 116.232 39.3374 117.182 39.8263 118.028C40.3152 118.874 40.9963 119.593 41.8145 120.127L61.7029 131.604L70.3957 146.673L79.0988 141.657L98.9873 153.133C100.535 154.026 101.802 153.299 101.802 151.502V116.42C101.743 115.438 101.453 114.483 100.955 113.635C100.457 112.786 99.7645 112.068 98.9353 111.539V111.539Z" fill="#79EAAB"/>
<path opacity="0.9" d="M100.015 110.906L42.8427 77.9001C42.5668 77.7047 42.246 77.5822 41.91 77.544C41.5741 77.5059 41.234 77.5534 40.9213 77.682L39.7789 78.3363C40.096 78.1976 40.4437 78.1438 40.7878 78.1802C41.132 78.2167 41.4607 78.342 41.7418 78.544L98.8626 111.549C99.6822 112.085 100.364 112.806 100.853 113.654C101.342 114.502 101.624 115.453 101.677 116.431V151.482C101.71 151.824 101.654 152.169 101.516 152.483C101.378 152.798 101.162 153.071 100.888 153.279L101.926 152.676C102.212 152.476 102.439 152.203 102.583 151.885C102.728 151.567 102.784 151.216 102.747 150.869V115.787C102.703 114.817 102.434 113.87 101.96 113.022C101.485 112.175 100.82 111.45 100.015 110.906V110.906Z" fill="#6DFFAF"/>
<path d="M77.3216 113.902L80.0014 110.292C80.3062 109.88 80.142 109.025 79.6333 108.379C79.1235 107.732 78.4656 107.541 78.1609 107.954L75.333 111.764C73.6492 110.1 71.8463 108.663 69.9596 107.574C68.073 106.484 66.27 105.84 64.5862 105.559L61.7584 98.484C61.4536 97.7194 60.7947 97.1506 60.286 97.2088C59.7773 97.2671 59.6131 97.9332 59.9179 98.6965L62.5976 105.401C57.4174 105.502 53.8619 109.683 53.8619 116.869C53.8619 117.554 54.3427 118.386 54.9351 118.728L84.9841 136.076C85.5765 136.418 86.0573 136.142 86.0573 135.457C86.0562 128.271 82.5019 119.986 77.3216 113.902ZM56.0491 116.892C56.5985 108.903 62.6277 105.82 69.9596 110.053C77.2916 114.286 83.3207 124.331 83.8702 132.955L56.0491 116.892Z" fill="white"/>
<path d="M77.4473 121.021L76.0328 120.204C75.6422 119.979 75.3256 120.161 75.3256 120.613L75.3256 122.246C75.3256 122.697 75.6422 123.245 76.0328 123.471L77.4483 124.288C77.839 124.514 78.1556 124.331 78.1556 123.88L78.1556 122.246C78.1556 121.795 77.8379 121.246 77.4473 121.021Z" fill="white"/>
<path d="M63.8855 113.19L62.47 112.373C62.0794 112.148 61.7628 112.33 61.7628 112.781L61.7628 114.415C61.7628 114.866 62.0794 115.414 62.47 115.64L63.8855 116.457C64.2762 116.682 64.5928 116.5 64.5928 116.049L64.5928 114.415C64.5928 113.964 64.2762 113.416 63.8855 113.19Z" fill="white"/>
<defs>
<radialGradient id="paint0_radial" cx="0" cy="0" r="1" gradientUnits="userSpaceOnUse" gradientTransform="translate(-21.4361 135.639) scale(154.021)">
<stop stop-color="#42E8E0"/>
<stop offset="0.02" stop-color="#40D8D7"/>
<stop offset="0.06" stop-color="#3AAFC0"/>
<stop offset="0.11" stop-color="#3589AC"/>
<stop offset="0.17" stop-color="#30699A"/>
<stop offset="0.23" stop-color="#2C4D8B"/>
<stop offset="0.3" stop-color="#29377F"/>
<stop offset="0.38" stop-color="#272675"/>
<stop offset="0.47" stop-color="#251B6F"/>
<stop offset="0.61" stop-color="#24146B"/>
<stop offset="1" stop-color="#24126A"/>
</radialGradient>
<radialGradient id="paint1_radial" cx="0" cy="0" r="1" gradientUnits="userSpaceOnUse" gradientTransform="translate(22185.1 19892.6) scale(25011.3 13619.7)">
<stop stop-color="#42E8E0"/>
<stop offset="0.1" stop-color="#3CCACE"/>
<stop offset="0.34" stop-color="#2F87A5"/>
<stop offset="0.56" stop-color="#255385"/>
<stop offset="0.75" stop-color="#1E2D6E"/>
<stop offset="0.91" stop-color="#1A1660"/>
<stop offset="1" stop-color="#180D5B"/>
</radialGradient>
<linearGradient id="paint2_linear" x1="167.753" y1="76.3481" x2="39.1808" y2="149.421" gradientUnits="userSpaceOnUse">
<stop stop-color="#BD52FF"/>
<stop offset="1" stop-color="#EA49A0"/>
</linearGradient>
<radialGradient id="paint3_radial" cx="0" cy="0" r="1" gradientUnits="userSpaceOnUse" gradientTransform="translate(15280.1 10568.9) scale(5645.96 6644.47)">
<stop stop-color="#42E8E0"/>
<stop offset="0.1" stop-color="#3CCACE"/>
<stop offset="0.34" stop-color="#2F87A5"/>
<stop offset="0.56" stop-color="#255385"/>
<stop offset="0.75" stop-color="#1E2D6E"/>
<stop offset="0.91" stop-color="#1A1660"/>
<stop offset="1" stop-color="#180D5B"/>
</radialGradient>
<radialGradient id="paint4_radial" cx="0" cy="0" r="1" gradientUnits="userSpaceOnUse" gradientTransform="translate(13705.3 12121.6) scale(7954.4 9553.36)">
<stop stop-color="#42E8E0"/>
<stop offset="0.1" stop-color="#3CCACE"/>
<stop offset="0.34" stop-color="#2F87A5"/>
<stop offset="0.56" stop-color="#255385"/>
<stop offset="0.75" stop-color="#1E2D6E"/>
<stop offset="0.91" stop-color="#1A1660"/>
<stop offset="1" stop-color="#180D5B"/>
</radialGradient>
<radialGradient id="paint5_radial" cx="0" cy="0" r="1" gradientUnits="userSpaceOnUse" gradientTransform="translate(20238.5 7302.45) scale(5663.17 6659.93)">
<stop stop-color="#42E8E0"/>
<stop offset="0.1" stop-color="#3CCACE"/>
<stop offset="0.34" stop-color="#2F87A5"/>
<stop offset="0.56" stop-color="#255385"/>
<stop offset="0.75" stop-color="#1E2D6E"/>
<stop offset="0.91" stop-color="#1A1660"/>
<stop offset="1" stop-color="#180D5B"/>
</radialGradient>
<radialGradient id="paint6_radial" cx="0" cy="0" r="1" gradientUnits="userSpaceOnUse" gradientTransform="translate(18445.6 8946.89) scale(7982.73 9579.42)">
<stop stop-color="#42E8E0"/>
<stop offset="0.1" stop-color="#3CCACE"/>
<stop offset="0.34" stop-color="#2F87A5"/>
<stop offset="0.56" stop-color="#255385"/>
<stop offset="0.75" stop-color="#1E2D6E"/>
<stop offset="0.91" stop-color="#1A1660"/>
<stop offset="1" stop-color="#180D5B"/>
</radialGradient>
<clipPath id="clip0">
<rect width="30.7829" height="30.7829" fill="white" transform="matrix(0.866025 0.5 -2.20305e-08 1 103.343 40.9902)"/>
</clipPath>
</defs>
</svg>
